<svg viewBox="0 0 415.46 66.82" xmlns="http://www.w3.org/2000/svg"><path d="m39.13 15.44a8.57 8.57 0 1 1 -8.57-8.57 8.57 8.57 0 0 1 8.57 8.57" fill="#ee171d" transform="translate(-4.87 -6.87)"/><path d="m56.26 46.28h-39.4v-5.14h39.4v-3.43a8.56 8.56 0 0 0 -8.56-8.56h-34.27a8.56 8.56 0 0 0 -8.56 8.56v18.85h39.4v5.14h-39.4v3.42a8.56 8.56 0 0 0 8.56 8.57h34.27a8.56 8.56 0 0 0 8.56-8.57z" fill="#ee171d" transform="translate(-4.87 -6.87)"/><g fill="#1d1e1c"><path d="m304.56 22.28h-21.27l-22.59 14.27v-28.86h-11.87v59.13h11.87v-16.78l10.47-6.63 19.53 23.31.08.1h15.46l-24.97-29.8z"/><path d="m234.17 29.2h-35.73a8.74 8.74 0 0 0 -8.7 8.63v27.17a8.72 8.72 0 0 0 8.71 8.71h35.73a8.72 8.72 0 0 0 8.7-8.71v-27.09a8.72 8.72 0 0 0 -8.71-8.71zm-3 11v22.42h-29.69v-22.38z" transform="translate(-4.87 -6.87)"/><path d="m360.24 29.06h-34.37a8.72 8.72 0 0 0 -8.71 8.71v27.23a8.72 8.72 0 0 0 8.71 8.71h34.37a8.72 8.72 0 0 0 8.76-8.71v-1.94h-40v-7.27h40v-18a8.72 8.72 0 0 0 -8.76-8.73zm-3.06 10.42v7.25h-28.18v-7.25z" transform="translate(-4.87 -6.87)"/><path d="m124 29.23h-33.28v-14.72h-11.86v50.49a8.72 8.72 0 0 0 8.71 8.71h35.84a8.72 8.72 0 0 0 8.71-8.71v-27.08a8.73 8.73 0 0 0 -8.12-8.69zm-33.28 33.39v-22.37h29.65v22.37z" transform="translate(-4.87 -6.87)"/><path d="m411.62 29.16h-11.1c-3.26 0-6.2 2.42-7.39 5.65v-5.6h-11.85v44.48h11.85v-25.34c0-4.36 3.46-8.17 7.39-8.17h19.81v-2.31a8.72 8.72 0 0 0 -8.71-8.71z" transform="translate(-4.87 -6.87)"/><path d="m173.45 29.16h-11.1c-3.26 0-6.2 2.42-7.38 5.65v-5.6h-11.86v44.48h11.89v-25.34c0-4.36 3.45-8.17 7.38-8.17h19.81v-2.31a8.72 8.72 0 0 0 -8.74-8.71z" transform="translate(-4.87 -6.87)"/></g></svg>